<?xml version="1.0" standalone="no"?>
<!DOCTYPE svg PUBLIC "-//W3C//DTD SVG 20010904//EN"
 "http://www.w3.org/TR/2001/REC-SVG-20010904/DTD/svg10.dtd">
<svg version="1.0" xmlns="http://www.w3.org/2000/svg"
 width="465.000000pt" height="290.000000pt" viewBox="0 0 465.000000 290.000000"
 preserveAspectRatio="xMidYMid meet">
<metadata>
Created by potrace 1.16, written by Peter Selinger 2001-2019
</metadata>
<g transform="translate(0.000000,290.000000) scale(0.100000,-0.100000)"
fill="#000000" stroke="none">
<path d="M1490 1365 l0 -275 35 0 35 0 0 275 0 275 -35 0 -35 0 0 -275z"/>
<path d="M1638 1366 l-3 -274 33 -4 32 -4 0 278 0 278 -30 0 -29 0 -3 -274z"/>
<path d="M770 1373 c0 -169 3 -203 18 -233 21 -43 53 -60 114 -60 67 0 98 14
96 44 -2 23 -5 24 -59 19 -48 -5 -60 -2 -78 16 -19 19 -21 32 -21 136 l0 114
77 3 c76 3 78 4 78 28 0 24 -2 25 -77 28 l-78 3 0 49 0 50 -35 0 -35 0 0 -197z"/>
<path d="M480 1470 c-48 -12 -90 -61 -90 -106 0 -70 30 -94 145 -113 108 -19
142 -53 95 -96 -42 -38 -170 -23 -170 20 0 10 -11 15 -35 15 -40 0 -46 -19
-19 -59 24 -33 74 -51 144 -51 107 0 160 38 160 115 0 62 -44 97 -135 110
-115 16 -147 44 -100 91 42 42 149 27 161 -23 5 -18 13 -23 40 -23 19 0 34 5
34 11 0 26 -35 81 -60 94 -36 19 -125 27 -170 15z"/>
<path d="M1167 1467 c-123 -40 -172 -181 -104 -301 59 -106 250 -117 326 -20
12 15 21 33 21 40 0 23 -51 16 -75 -10 -42 -46 -145 -53 -192 -14 -14 11 -43
67 -43 82 0 3 71 7 158 8 l157 3 -1 53 c-1 37 -9 63 -25 87 -45 66 -143 98
-222 72z m118 -61 c30 -13 65 -58 65 -86 0 -6 -44 -10 -125 -10 -69 0 -125 2
-125 5 0 20 36 69 63 85 38 24 75 25 122 6z"/>
<path d="M1902 1469 c-72 -21 -132 -111 -132 -199 1 -70 59 -155 123 -179 64
-24 152 -8 188 35 13 15 14 15 19 -7 4 -18 14 -25 38 -27 l32 -3 0 190 0 191
-29 0 c-24 0 -31 -5 -36 -29 l-6 -29 -26 24 c-42 39 -106 51 -171 33z m139
-75 c39 -20 62 -76 56 -137 -4 -43 -10 -56 -42 -85 -35 -32 -41 -34 -93 -30
-46 4 -60 10 -83 36 -51 57 -51 147 0 196 47 45 99 52 162 20z"/>
<path d="M2240 1281 l0 -191 35 0 35 0 0 98 c0 53 5 114 10 134 15 51 61 88
111 88 37 0 39 2 39 30 0 28 -3 30 -35 30 -44 0 -90 -23 -107 -53 -12 -21 -13
-21 -18 13 -4 31 -9 35 -37 38 l-33 3 0 -190z"/>
</g>
</svg>
